<?xml version="1.0" ?>
<!-- Uploaded to: SVG Repo, www.svgrepo.com, Generator: SVG Repo Mixer Tools -->
<svg width="800px" height="800px" viewBox="0 0 64 64" xmlns="http://www.w3.org/2000/svg">
<defs>
<style>.cls-1{fill:#9dcbf4;}.cls-2{fill:#389ad6;}.cls-3{fill:none;stroke:#2a5081;stroke-linecap:round;stroke-linejoin:round;stroke-width:2px;}.cls-4{fill:#2a5081;}</style>
</defs>
<title/>
<g data-name="Layer 6" id="Layer_6">
<path class="cls-1" d="M42.24,50.19l-3.88,1-20.5-.24a4.16,4.16,0,0,1-1.67-.06A4,4,0,0,1,14,49.49a7.2,7.2,0,0,1-1.38-3.56,16.65,16.65,0,0,1-.14-2.86c.17-6.35-.17-16.82.14-23.27a32,32,0,0,1,.4-4.14v0a3.61,3.61,0,0,1,.46-1.32,3.32,3.32,0,0,1,1.68-.91,16.17,16.17,0,0,1,3-.51,48.72,48.72,0,0,1,6-.08.45.45,0,0,1,0,.08A46.67,46.67,0,0,0,24,21.49a3.07,3.07,0,0,0-3.33-.17,2.91,2.91,0,0,0-.92.82l-.16,1.93,5.64,11.27,3.66,6.34a3,3,0,0,0,1,1l1.63.5a2.94,2.94,0,0,0,.72-.08c.08.09.17.18.25.28l.85.87A27.57,27.57,0,0,0,42.24,50.19Z"/>
<path class="cls-2" d="M34,43.26a10.15,10.15,0,0,1-.66,1c-4.05,5.7-13.27,6.51-17.14,6.59h-.65c-.68,0-1.08,0-1.11,0a3.49,3.49,0,0,1-.29-.86h0c0-.15-.08-.33-.13-.52a55.22,55.22,0,0,1-1.38-9.94c-.05-1.22-.06-2.46,0-3.69,0-.5.06-1,.11-1.48.75-7.62,7.12-13.62,7.12-13.62l-.12,1.38-.16,1.93,5.64,11.27,3.52,7,1.14.35,1.63.5.92.28,0-.08c.07-.09.2-.26.36-.49a35.15,35.15,0,0,1,2.42-3.06C35.94,39.19,36,39.6,34,43.26Z"/>
<path class="cls-3" d="M50.47,17.53V46.61a4.64,4.64,0,0,1-4.62,4.63H17.26a4.64,4.64,0,0,1-4.62-4.62V17.53a4.64,4.64,0,0,1,4.62-4.62H45.84"/>
<path class="cls-3" d="M41.87,28.43l1.69-2.92a3.06,3.06,0,0,0-2.65-4.6,3,3,0,0,0-1.47.38l-.12.07a3.14,3.14,0,0,0-.85,3.88l.07.18a5.22,5.22,0,0,1-9.36,4.51l0-.09-4.31-7.46a3,3,0,0,0-.83-.89,3.07,3.07,0,0,0-3.33-.17,2.91,2.91,0,0,0-.92.82,3.07,3.07,0,0,0-.2,3.37l5.68,9.83,3.66,6.34a3,3,0,0,0,1,1l.14.09a3.09,3.09,0,0,0,1.49.41,2.94,2.94,0,0,0,.72-.08,2.21,2.21,0,0,0,.61-.21,2.93,2.93,0,0,0,1.37-1.24v0l1-1.8,2.91-5"/>
<circle class="cls-4" cx="50.52" cy="14.19" r="1"/>
</g>
</svg>